<svg width="24" height="24" fill="none" xmlns="http://www.w3.org/2000/svg"><g clip-path="url(#clip0)"><path d="M24 12l-2.717-3.016.426-4.039-3.973-.84L15.709.583 12 2.24 11.5 12l.5 9.759 3.71 1.657 2.026-3.52 3.973-.841-.426-4.039L24 12z" fill="#0ED678"/><path d="M8.291.584l-2.026 3.52-3.973.841.425 4.039L0 12l2.717 3.016-.425 4.039 3.973.84 2.026 3.521 3.71-1.657V2.24L8.29.584z" fill="#04EB84"/><path d="M17.031 9.372l-1.05-.937-3.98 4.46-.501 1.107.5 1.007 5.031-5.637z" fill="#F7F0EB"/><path d="M7.817 10.94l-.995.995 4.185 4.186.993-1.112v-2.115l-1.05 1.178-3.133-3.132z" fill="#FFFBF5"/></g><defs><clipPath id="clip0"><path fill="#fff" d="M0 0h24v24H0z"/></clipPath></defs></svg>