<svg width="14" height="15" fill="none" xmlns="http://www.w3.org/2000/svg"><path d="M6.72.967a6.72 6.72 0 100 13.44 6.72 6.72 0 000-13.44zM.829 8.194h1.874c.03.68.125 1.355.284 2.016H1.374a5.869 5.869 0 01-.545-2.016zm6.399-4.032V1.855c.72.274 1.31.806 1.657 1.494.153.259.289.528.404.806l-2.061.007zM9.632 5.17c.173.66.276 1.335.306 2.016h-2.71V5.17h2.404zm-3.42-3.315v2.307h-2.06a6.38 6.38 0 01.403-.806 3.084 3.084 0 011.657-1.5zm0 3.315v2.016H3.51c.03-.68.133-1.356.306-2.016h2.397zm-3.51 2.01H.83c.06-.7.244-1.382.545-2.016h1.613a10.55 10.55 0 00-.284 2.016zm.807 1.015h2.703v2.016H3.815a9.617 9.617 0 01-.306-2.016zm2.71 2.987v2.307a3.084 3.084 0 01-1.657-1.493 6.367 6.367 0 01-.403-.806l2.06-.008zm1.009 2.307v-2.27h2.06c-.115.278-.25.548-.403.807a3.084 3.084 0 01-1.657 1.493v-.03zm0-3.315V8.157H9.93a9.618 9.618 0 01-.306 2.016H7.228zm3.517-2.016h1.874c-.06.7-.245 1.382-.545 2.016h-1.62c.156-.65.251-1.312.283-1.979l.008-.037zm0-1.008a10.551 10.551 0 00-.292-1.979h1.613a5.86 5.86 0 01.545 2.016l-1.867-.037zm.746-2.987h-1.336a6.661 6.661 0 00-1.038-1.881 5.973 5.973 0 012.344 1.881h.03zM4.323 2.281a6.66 6.66 0 00-1.038 1.881H1.98a5.973 5.973 0 012.344-1.881zm-2.352 8.96h1.314a6.666 6.666 0 001.038 1.881 5.973 5.973 0 01-2.344-1.904l-.008.023zm7.138 1.881a6.661 6.661 0 001.038-1.881h1.314a5.972 5.972 0 01-2.344 1.851l-.008.03z" fill="#4496F6"/></svg>