<svg width="0" height="0" class="hidden"><symbol fill="none" xmlns="http://www.w3.org/2000/svg" viewBox="0 0 18 18" id="calculator"><g clip-path="url(#clip0)" fill="#000"><path d="M18 6.68V1.758A1.76 1.76 0 0016.242 0H11.32a1.76 1.76 0 00-1.722 1.406H8.402A1.76 1.76 0 006.68 0H1.758A1.76 1.76 0 000 1.758V6.68a1.76 1.76 0 001.406 1.722v1.196A1.76 1.76 0 000 11.32v4.922C0 17.212.789 18 1.758 18H6.68a1.76 1.76 0 001.722-1.406h1.196A1.76 1.76 0 0011.32 18h4.922A1.76 1.76 0 0018 16.242V11.32a1.76 1.76 0 00-1.406-1.722V8.402A1.76 1.76 0 0018 6.68zM11.32.703h4.922c.582 0 1.055.473 1.055 1.055V6.68c0 .581-.473 1.054-1.055 1.054H11.32a1.056 1.056 0 01-1.054-1.054V1.758c0-.582.473-1.055 1.054-1.055zM.703 6.68V1.758c0-.582.473-1.055 1.055-1.055H6.68c.581 0 1.054.473 1.054 1.055V6.68c0 .581-.473 1.054-1.054 1.054H1.758A1.056 1.056 0 01.703 6.68zM6.68 17.297H1.758a1.056 1.056 0 01-1.055-1.055V11.32c0-.581.473-1.054 1.055-1.054h.879a.352.352 0 000-.703h-.528V8.437h4.57A1.76 1.76 0 008.438 6.68V2.11h1.126v4.57c0 .969.788 1.757 1.757 1.757h4.57v1.126h-4.57a1.76 1.76 0 00-1.757 1.757v4.57H8.437v-4.57A1.76 1.76 0 006.68 9.563H5.8a.352.352 0 000 .703h.88c.581 0 1.054.473 1.054 1.054v4.922c0 .582-.473 1.055-1.054 1.055zm10.617-5.977v4.922c0 .582-.473 1.055-1.055 1.055H11.32a1.056 1.056 0 01-1.054-1.055V11.32c0-.581.473-1.054 1.054-1.054h4.922c.582 0 1.055.473 1.055 1.054z"/><path d="M2.813 5.273h.351v.352a1.056 1.056 0 002.11 0v-.352h.351a1.056 1.056 0 000-2.109h-.352v-.352a1.056 1.056 0 00-2.109 0v.352h-.352a1.056 1.056 0 000 2.11zm0-1.406h.703a.352.352 0 00.351-.351v-.704a.352.352 0 01.703 0v.704c0 .194.158.351.352.351h.703a.352.352 0 010 .703h-.703a.352.352 0 00-.352.352v.703a.352.352 0 01-.703 0v-.703a.352.352 0 00-.351-.352h-.704a.352.352 0 010-.703zm2.812 8.86H2.812a1.056 1.056 0 000 2.109h2.813a1.056 1.056 0 000-2.11zm0 1.406H2.812a.352.352 0 010-.703h2.813a.352.352 0 010 .703zm9.896-2.092a1.056 1.056 0 00-1.491 0l-.249.249-.248-.249a1.056 1.056 0 00-1.492 1.492l.249.248-.249.249a1.056 1.056 0 00.746 1.8c.27 0 .54-.103.746-.309l.248-.248.249.248a1.056 1.056 0 001.492-1.492l-.25-.248.25-.248a1.056 1.056 0 000-1.492zm-.994 1.989l.497.497a.352.352 0 01-.497.497l-.497-.497a.351.351 0 00-.497 0l-.497.497a.349.349 0 01-.498 0 .352.352 0 010-.497l.498-.497a.352.352 0 000-.497l-.498-.497a.35.35 0 010-.498.35.35 0 01.498 0l.497.498a.352.352 0 00.497 0l.497-.498a.352.352 0 01.497.498l-.497.497a.352.352 0 000 .497zm-1.74-7.763c.27 0 .54-.103.746-.308L15.52 3.97a1.056 1.056 0 00-1.49-1.49l-1.99 1.987a1.056 1.056 0 00.746 1.8zm-.249-1.303l1.989-1.988a.35.35 0 01.497 0 .352.352 0 010 .497l-1.989 1.989a.35.35 0 01-.497 0 .352.352 0 010-.497zm-8.319 5.302a.352.352 0 000-.703.351.351 0 100 .703z"/></g><defs><clipPath id="clip0"><path fill="#fff" d="M0 0h18v18H0z"/></clipPath></defs></symbol><symbol fill="none" xmlns="http://www.w3.org/2000/svg" viewBox="0 0 11 10" id="home"><path d="M9.871 5.165l-4.5-5a.515.515 0 00-.743 0l-4.5 5A.499.499 0 00.5 6h1v3.5a.5.5 0 00.5.5h1.5a.5.5 0 00.5-.5v-2h2v2a.5.5 0 00.5.5H8a.5.5 0 00.5-.5V6h1a.499.499 0 00.371-.835z" fill="#949494"/></symbol><symbol fill="none" xmlns="http://www.w3.org/2000/svg" viewBox="0 0 253 51" id="logo"><path d="M71.213 33.969h-4.172l-3.948-6.804h-2.94v6.804H56.29v-19.6h7.84c1.81 0 3.35.634 4.62 1.904 1.27 1.269 1.904 2.8 1.904 4.592 0 1.213-.345 2.342-1.036 3.388a6.521 6.521 0 01-2.744 2.324l4.34 7.392zM64.13 17.98h-3.976v5.796h3.976c.728 0 1.353-.28 1.876-.84.523-.58.784-1.27.784-2.072 0-.803-.261-1.484-.784-2.044s-1.148-.84-1.876-.84zm22.087 10.473H75.661c.467 1.754 1.783 2.632 3.948 2.632 1.382 0 2.427-.467 3.136-1.4l2.912 1.68c-1.381 1.997-3.416 2.996-6.104 2.996-2.314 0-4.172-.7-5.572-2.1-1.4-1.4-2.1-3.164-2.1-5.292 0-2.091.691-3.846 2.072-5.264 1.363-1.42 3.136-2.128 5.32-2.128 2.072 0 3.762.709 5.068 2.128 1.344 1.418 2.016 3.173 2.016 5.264 0 .392-.046.886-.14 1.484zm-10.612-2.8h7.14c-.205-.915-.625-1.615-1.26-2.1-.616-.486-1.353-.728-2.212-.728-.97 0-1.773.252-2.408.756-.634.485-1.054 1.176-1.26 2.072zm28.758-6.076c1.605 0 2.884.522 3.836 1.568.971 1.045 1.456 2.445 1.456 4.2v8.624h-3.612v-8.372c0-.84-.205-1.494-.616-1.96-.411-.467-.989-.7-1.736-.7-.821 0-1.465.27-1.932.812-.448.54-.672 1.325-.672 2.352v7.868h-3.612v-8.372c0-.84-.206-1.494-.616-1.96-.41-.467-.99-.7-1.736-.7-.803 0-1.447.28-1.932.84-.467.54-.7 1.316-.7 2.324v7.868h-3.612v-14h3.612v1.484c.84-1.251 2.137-1.876 3.892-1.876 1.736 0 3.005.672 3.808 2.016.915-1.344 2.305-2.016 4.172-2.016zm11.972.392v2.408c.317-.878.858-1.54 1.624-1.988.765-.467 1.642-.7 2.632-.7v4.032c-1.102-.15-2.091.074-2.968.672-.859.578-1.288 1.54-1.288 2.884v6.692h-3.612v-14h3.612zm16.489 1.651v-1.65h3.612v14h-3.612v-1.652c-1.083 1.362-2.604 2.044-4.564 2.044-1.867 0-3.472-.71-4.816-2.128-1.326-1.438-1.988-3.192-1.988-5.264 0-2.054.662-3.8 1.988-5.236 1.344-1.438 2.949-2.156 4.816-2.156 1.96 0 3.481.68 4.564 2.044zm-6.664 8.205c.728.728 1.652 1.092 2.772 1.092 1.12 0 2.044-.364 2.772-1.092.746-.747 1.12-1.7 1.12-2.856 0-1.158-.374-2.1-1.12-2.828-.728-.747-1.652-1.12-2.772-1.12-1.12 0-2.044.373-2.772 1.12-.728.728-1.092 1.67-1.092 2.828 0 1.157.364 2.109 1.092 2.856zm21.559-9.856v3.472h-3.164v5.824c0 .485.121.84.364 1.064.243.224.597.354 1.064.392.467.018 1.045.009 1.736-.028v3.276c-2.445.28-4.191.056-5.236-.672-1.027-.747-1.54-2.091-1.54-4.032V23.44h-2.436v-3.472h2.436V17.14l3.612-1.092v3.92h3.164zm4.339-1.68c-.598 0-1.12-.215-1.568-.644-.43-.448-.644-.971-.644-1.568 0-.598.214-1.12.644-1.568.448-.448.97-.672 1.568-.672a2.09 2.09 0 011.568.672c.448.448.672.97.672 1.568 0 .597-.224 1.12-.672 1.568-.43.429-.952.644-1.568.644zm1.82 15.68h-3.612v-14h3.612v14zm11.09-14.392c1.549 0 2.809.513 3.78 1.54 1.008 1.045 1.512 2.464 1.512 4.256v8.596h-3.612V25.82c0-.915-.252-1.624-.756-2.128-.486-.504-1.158-.756-2.016-.756-.952 0-1.708.298-2.268.896-.542.578-.812 1.437-.812 2.576v7.56h-3.612v-14h3.612v1.568c.858-1.307 2.249-1.96 4.172-1.96zm19.1 2.128v-1.736h3.528v13.328c0 2.146-.719 3.798-2.156 4.956-1.419 1.138-3.136 1.708-5.152 1.708-3.174 0-5.386-1.14-6.636-3.416l3.08-1.764c.69 1.306 1.913 1.96 3.668 1.96 1.138 0 2.034-.3 2.688-.896.653-.598.98-1.447.98-2.548v-1.512c-1.064 1.418-2.558 2.128-4.48 2.128-1.979 0-3.64-.691-4.984-2.072-1.326-1.42-1.988-3.118-1.988-5.096 0-1.98.672-3.668 2.016-5.068 1.344-1.4 2.996-2.1 4.956-2.1 1.922 0 3.416.709 4.48 2.128zm-1.12 7.812c.746-.728 1.12-1.652 1.12-2.772 0-1.12-.374-2.026-1.12-2.716-.728-.728-1.662-1.092-2.8-1.092-1.12 0-2.063.364-2.828 1.092-.728.69-1.092 1.596-1.092 2.716s.364 2.044 1.092 2.772c.746.709 1.689 1.064 2.828 1.064 1.138 0 2.072-.355 2.8-1.064zm18.591-2.268h-10.5v-3.472h10.5v3.472zm6.801-3.304c0 .597.849 1.11 2.548 1.54.597.13 1.138.289 1.624.476.485.168.97.42 1.456.756.504.317.896.746 1.176 1.288.28.54.42 1.166.42 1.876 0 1.437-.542 2.548-1.624 3.332-1.083.765-2.418 1.148-4.004 1.148-2.875 0-4.835-1.111-5.88-3.332l3.136-1.764c.429 1.213 1.344 1.82 2.744 1.82 1.288 0 1.932-.402 1.932-1.204 0-.598-.85-1.111-2.548-1.54a17.291 17.291 0 01-1.624-.504 8.78 8.78 0 01-1.456-.728 3.523 3.523 0 01-1.204-1.26c-.262-.523-.392-1.13-.392-1.82 0-1.382.504-2.464 1.512-3.248 1.026-.803 2.296-1.204 3.808-1.204 1.138 0 2.174.26 3.108.784a5.538 5.538 0 012.212 2.184l-3.08 1.68c-.448-.952-1.195-1.428-2.24-1.428-.467 0-.859.112-1.176.336-.299.205-.448.476-.448.812zm17.831-4.368c1.886 0 3.491.718 4.816 2.156 1.344 1.437 2.016 3.182 2.016 5.236 0 2.09-.672 3.845-2.016 5.264-1.306 1.418-2.912 2.128-4.816 2.128-1.96 0-3.472-.682-4.536-2.044v7.252h-3.612v-19.6h3.612v1.652c1.064-1.363 2.576-2.044 4.536-2.044zm-3.444 10.248c.728.728 1.652 1.092 2.772 1.092 1.12 0 2.044-.364 2.772-1.092.747-.747 1.12-1.7 1.12-2.856 0-1.158-.373-2.1-1.12-2.828-.728-.747-1.652-1.12-2.772-1.12-1.12 0-2.044.373-2.772 1.12-.728.728-1.092 1.67-1.092 2.828 0 1.157.364 2.109 1.092 2.856zm20.972-10.248c1.885 0 3.49.718 4.816 2.156 1.344 1.437 2.016 3.182 2.016 5.236 0 2.09-.672 3.845-2.016 5.264-1.307 1.418-2.912 2.128-4.816 2.128-1.96 0-3.472-.682-4.536-2.044v1.652h-3.612v-19.6h3.612v7.252c1.064-1.363 2.576-2.044 4.536-2.044zm-3.444 10.248c.728.728 1.652 1.092 2.772 1.092 1.12 0 2.044-.364 2.772-1.092.746-.747 1.12-1.7 1.12-2.856 0-1.158-.374-2.1-1.12-2.828-.728-.747-1.652-1.12-2.772-1.12-1.12 0-2.044.373-2.772 1.12-.728.728-1.092 1.67-1.092 2.828 0 1.157.364 2.109 1.092 2.856z" fill="#161616"/><g clip-path="url(#clip0)" fill="#4496F6"><path d="M7.79 39.269v-12.83l22.47-16.41 6.19 4.53 6.21-4.53-12.4-9.06L.47 22.719v16.55h7.32z"/><path d="M32.05 39.269v-12.83l22.47-16.41h12.4L54.52.969l-29.79 21.75v16.55h7.32z"/></g><path d="M.47 40.126h2.75c.688 0 1.264.23 1.726.693.462.462.693 1.037.693 1.727 0 .689-.23 1.265-.693 1.727-.462.462-1.038.693-1.727.693H1.24v2.86H.47v-7.7zm.77 4.114h1.98c.476 0 .868-.158 1.176-.473.315-.316.473-.723.473-1.221 0-.492-.158-.895-.473-1.21-.308-.323-.7-.484-1.177-.484H1.24v3.388zm7.708-2.046c.821 0 1.478.29 1.969.869a2.97 2.97 0 01.759 2.035c0 .036-.007.15-.022.34H6.825c.073.55.308.99.704 1.32.396.33.891.496 1.485.496.836 0 1.426-.312 1.771-.935l.638.374a2.565 2.565 0 01-1.001.935 3 3 0 01-1.419.33c-.865 0-1.57-.272-2.112-.814-.543-.543-.814-1.232-.814-2.068 0-.83.268-1.515.803-2.057.535-.55 1.225-.825 2.068-.825zm0 .704c-.572 0-1.052.168-1.441.506-.381.337-.609.78-.682 1.33h4.103c-.08-.586-.304-1.037-.671-1.352a1.969 1.969 0 00-1.309-.484zm7.622-1.452h-2.86v-.638h2.86v.638zm-3.013 5.115l3.278-4.235h.616v5.5h-.726V43.59l-3.278 4.235h-.616v-5.5h.726v4.235zm4.769-4.235h4.62v.704H21v4.796h-.726V43.03h-1.947v-.704zm6.231 4.234l3.278-4.234h.616v5.5h-.726V43.59l-3.278 4.235h-.616v-5.5h.726v4.235zm9.323-1.836v-2.398h.726v5.5h-.726v-2.398h-3.168v2.398h-.726v-5.5h.726v2.398h3.168zm2.261-2.398h3.52v.704h-2.794v4.796h-.726v-5.5zm10.103-.132c.784 0 1.452.278 2.002.836.557.557.836 1.239.836 2.046 0 .806-.279 1.488-.836 2.046a2.708 2.708 0 01-2.002.836c-.976 0-1.716-.404-2.222-1.21v3.278h-.726v-7.7h.726v1.078c.506-.807 1.246-1.21 2.222-1.21zm-1.595 4.433c.418.418.931.627 1.54.627.608 0 1.122-.21 1.54-.627.418-.433.627-.95.627-1.551 0-.61-.21-1.122-.627-1.54a2.075 2.075 0 00-1.54-.638c-.609 0-1.122.212-1.54.638a2.093 2.093 0 00-.627 1.54c0 .6.209 1.118.627 1.55zm8.181-4.433c.821 0 1.477.29 1.969.869a2.97 2.97 0 01.759 2.035c0 .036-.008.15-.022.34h-4.83c.074.55.309.99.705 1.32.396.33.89.496 1.485.496.836 0 1.426-.312 1.77-.935l.639.374a2.565 2.565 0 01-1.001.935 3 3 0 01-1.42.33c-.864 0-1.569-.272-2.111-.814-.543-.543-.814-1.232-.814-2.068 0-.83.267-1.515.803-2.057.535-.55 1.224-.825 2.068-.825zm0 .704c-.572 0-1.052.168-1.441.506-.382.337-.609.78-.682 1.33h4.103c-.08-.586-.305-1.037-.671-1.352a1.969 1.969 0 00-1.31-.484zm8.437-.572h.836v5.5h-.726v-4.39l-1.925 3.125h-.088l-1.925-3.124v4.389h-.726v-5.5h.836l1.859 3.014 1.859-3.014zm6.983 4.807a2.825 2.825 0 01-2.046.825c-.814 0-1.5-.275-2.057-.825-.557-.558-.836-1.243-.836-2.057 0-.814.279-1.496.836-2.046.558-.558 1.243-.836 2.057-.836.807 0 1.489.278 2.046.836.565.55.847 1.232.847 2.046a2.8 2.8 0 01-.847 2.057zm-3.586-.506c.418.418.932.627 1.54.627.609 0 1.122-.21 1.54-.627.418-.433.627-.95.627-1.551 0-.61-.209-1.122-.627-1.54a2.075 2.075 0 00-1.54-.638c-.608 0-1.122.212-1.54.638a2.093 2.093 0 00-.627 1.54c0 .6.21 1.118.627 1.55zm9.542-1.903v-2.398h.726v5.5h-.726v-2.398h-3.168v2.398h-.726v-5.5h.726v2.398h3.168zm1.602-2.398h4.62v.704H78.48v4.796h-.727V43.03h-1.947v-.704zm9.398 2.398v-2.398h.726v5.5h-.726v-2.398h-3.168v2.398h-.726v-5.5h.726v2.398h3.168zm2.988-.308H89.7c.506 0 .938.16 1.298.484.359.315.538.722.538 1.22 0 .507-.18.917-.538 1.233-.345.315-.778.473-1.298.473h-2.233v-5.5h.725v2.09zm4.114 3.41v-5.5h.725v5.5h-.725zm-4.115-.704h1.508c.315 0 .579-.092.792-.275a.932.932 0 00.319-.726.9.9 0 00-.32-.715 1.143 1.143 0 00-.791-.286h-1.507v2.002zm8.861-2.145l2.145 2.849h-.87l-1.715-2.266-1.716 2.266h-.87l2.157-2.85-2.013-2.65h.869l1.573 2.079 1.573-2.08h.869l-2.002 2.652zm7.378-.011l2.948 2.86h-.968l-2.75-2.651v2.65h-.726v-5.5h.726v2.432l2.618-2.431h.99l-2.838 2.64zm8.001 2.167a2.827 2.827 0 01-2.046.825c-.814 0-1.5-.275-2.057-.825-.557-.558-.836-1.243-.836-2.057 0-.814.279-1.496.836-2.046.557-.558 1.243-.836 2.057-.836.807 0 1.489.278 2.046.836.565.55.847 1.232.847 2.046a2.8 2.8 0 01-.847 2.057zm-3.586-.506c.418.418.931.627 1.54.627s1.122-.21 1.54-.627c.418-.433.627-.95.627-1.551 0-.61-.209-1.122-.627-1.54a2.074 2.074 0 00-1.54-.638c-.609 0-1.122.212-1.54.638a2.093 2.093 0 00-.627 1.54c0 .6.209 1.118.627 1.55zm10.202-4.301h.836v5.5h-.726v-4.39l-1.925 3.125h-.088l-1.925-3.124v4.389h-.726v-5.5h.836l1.859 3.014 1.859-3.014zm2.375 0h4.62v5.5h-.726V43.03h-3.168v4.796h-.726v-5.5zm10.885 1.078v-1.078h.726v5.5h-.726v-1.078c-.506.806-1.247 1.21-2.222 1.21a2.743 2.743 0 01-2.013-.836c-.55-.558-.825-1.24-.825-2.046 0-.807.275-1.49.825-2.046a2.743 2.743 0 012.013-.836c.975 0 1.716.403 2.222 1.21zm-3.707 3.223c.418.418.931.627 1.54.627.608 0 1.122-.21 1.54-.627.418-.433.627-.95.627-1.551 0-.61-.209-1.122-.627-1.54a2.076 2.076 0 00-1.54-.638c-.609 0-1.122.212-1.54.638a2.093 2.093 0 00-.627 1.54c0 .6.209 1.118.627 1.55zm9.864-1.903v-2.398h.726v5.5h-.726v-2.398h-3.168v2.398h-.726v-5.5h.726v2.398h3.168zm2.987 1.836l3.278-4.234h.616v5.5h-.726V43.59l-3.278 4.235h-.616v-5.5h.726v4.235zm9.17-5.114h-2.86v-.638h2.86v.638zm-3.014 5.115l3.278-4.235h.616v5.5h-.726V43.59l-3.278 4.235h-.616v-5.5h.726v4.235zm11.886 1.397c-1.174 0-2.138-.385-2.893-1.155-.763-.778-1.144-1.72-1.144-2.827 0-1.108.381-2.05 1.144-2.827.755-.77 1.719-1.155 2.893-1.155a3.81 3.81 0 011.947.517 3.618 3.618 0 011.386 1.375l-.682.396a2.738 2.738 0 00-1.078-1.122 3.06 3.06 0 00-1.573-.418c-.968 0-1.753.311-2.354.935-.609.63-.913 1.397-.913 2.299 0 .902.304 1.668.913 2.299.601.623 1.386.935 2.354.935.572 0 1.096-.14 1.573-.418a2.739 2.739 0 001.078-1.122l.682.385a3.525 3.525 0 01-1.375 1.386 3.873 3.873 0 01-1.958.517zm9.165-4.554v-1.078h.726v5.5h-.726v-1.078c-.506.806-1.246 1.21-2.222 1.21a2.746 2.746 0 01-2.013-.836c-.55-.558-.825-1.24-.825-2.046 0-.807.275-1.49.825-2.046a2.746 2.746 0 012.013-.836c.976 0 1.716.403 2.222 1.21zm-3.707 3.223c.418.418.932.627 1.54.627.609 0 1.122-.21 1.54-.627.418-.433.627-.95.627-1.551 0-.61-.209-1.122-.627-1.54a2.074 2.074 0 00-1.54-.638c-.608 0-1.122.212-1.54.638a2.093 2.093 0 00-.627 1.54c0 .6.209 1.118.627 1.55zm9.865-1.903v-2.398h.726v5.5h-.726v-2.398h-3.168v2.398h-.726v-5.5h.726v2.398h3.168zm3.757.242l2.948 2.86h-.968l-2.75-2.651v2.65h-.726v-5.5h.726v2.432l2.618-2.431h.99l-2.838 2.64zm3.279-2.64h4.62v.704h-1.947v4.796h-.726V43.03h-1.947v-.704zm9.242 2.453h-3.96v-.704h3.96v.704zm1.755-4.653h5.5v7.7h-.77v-6.974h-3.96v6.974h-.77v-7.7zm9.693 2.068c.821 0 1.477.29 1.969.869a2.97 2.97 0 01.759 2.035c0 .036-.008.15-.022.34h-4.829c.073.55.308.99.704 1.32.396.33.891.496 1.485.496.836 0 1.426-.312 1.771-.935l.638.374a2.567 2.567 0 01-1.001.935 3 3 0 01-1.419.33c-.866 0-1.57-.272-2.112-.814-.543-.543-.814-1.232-.814-2.068 0-.83.267-1.515.803-2.057.535-.55 1.224-.825 2.068-.825zm0 .704c-.572 0-1.053.168-1.441.506-.382.337-.609.78-.682 1.33h4.103c-.081-.586-.305-1.037-.671-1.352a1.97 1.97 0 00-1.309-.484zm3.008-.572h4.62v.704h-1.947v4.796h-.726V43.03h-1.947v-.704zm7.831-.132c.821 0 1.477.29 1.969.869a2.97 2.97 0 01.759 2.035c0 .036-.008.15-.022.34h-4.829c.073.55.308.99.704 1.32.396.33.891.496 1.485.496.836 0 1.426-.312 1.771-.935l.638.374a2.567 2.567 0 01-1.001.935 3 3 0 01-1.419.33c-.866 0-1.57-.272-2.112-.814-.543-.543-.814-1.232-.814-2.068 0-.83.267-1.515.803-2.057.535-.55 1.224-.825 2.068-.825zm0 .704c-.572 0-1.053.168-1.441.506-.382.337-.609.78-.682 1.33h4.103c-.081-.586-.305-1.037-.671-1.352a1.97 1.97 0 00-1.309-.484zm6.83-.704c.785 0 1.452.278 2.002.836.558.557.836 1.239.836 2.046 0 .806-.278 1.488-.836 2.046a2.708 2.708 0 01-2.002.836c-.975 0-1.716-.404-2.222-1.21v3.278h-.726v-7.7h.726v1.078c.506-.807 1.247-1.21 2.222-1.21zm-1.595 4.433c.418.418.932.627 1.54.627.609 0 1.122-.21 1.54-.627.418-.433.627-.95.627-1.551 0-.61-.209-1.122-.627-1.54a2.074 2.074 0 00-1.54-.638c-.608 0-1.122.212-1.54.638a2.093 2.093 0 00-.627 1.54c0 .6.209 1.118.627 1.55zm8.083 1.331c-.785 0-1.445-.26-1.98-.781-.528-.528-.792-1.21-.792-2.046 0-.94.139-1.658.418-2.156.278-.506.843-.965 1.694-1.375.271-.125.484-.22.638-.286a8.88 8.88 0 00.605-.264c.638-.294.96-.657.968-1.09l.572.33a1.752 1.752 0 01-.176.496c-.096.16-.191.29-.286.385a1.824 1.824 0 01-.418.308 7.781 7.781 0 01-.451.242l-.55.23-.517.22c-.506.22-.884.452-1.133.694a1.96 1.96 0 00-.517.924c.234-.316.542-.554.924-.715a2.83 2.83 0 011.155-.253c.733 0 1.338.242 1.815.726.484.476.726 1.089.726 1.837 0 .74-.257 1.356-.77 1.848-.506.484-1.148.726-1.925.726zm-1.43-1.265c.381.359.858.539 1.43.539s1.041-.173 1.408-.517c.374-.352.561-.796.561-1.331 0-.543-.176-.987-.528-1.331-.345-.352-.807-.528-1.386-.528-.521 0-.994.165-1.419.495-.426.315-.638.748-.638 1.298 0 .557.19 1.015.572 1.375zm7.192.242l1.782-4.61h.77l-2.354 6.007c-.22.557-.528.986-.924 1.287a1.803 1.803 0 01-1.298.407v-.682c.66.08 1.162-.301 1.507-1.144l.143-.341-2.464-5.533h.77l2.068 4.609zm6.377-4.741c.785 0 1.452.278 2.002.836.558.557.836 1.239.836 2.046 0 .806-.278 1.488-.836 2.046a2.708 2.708 0 01-2.002.836c-.975 0-1.716-.404-2.222-1.21v3.278h-.726v-7.7h.726v1.078c.506-.807 1.247-1.21 2.222-1.21zm-1.595 4.433c.418.418.932.627 1.54.627.609 0 1.122-.21 1.54-.627.418-.433.627-.95.627-1.551 0-.61-.209-1.122-.627-1.54a2.074 2.074 0 00-1.54-.638c-.608 0-1.122.212-1.54.638a2.093 2.093 0 00-.627 1.54c0 .6.209 1.118.627 1.55zm5.64-4.301h3.52v.704h-2.794v4.796h-.726v-5.5zm8.92 1.078v-1.078h.726v5.5h-.726v-1.078c-.506.806-1.247 1.21-2.222 1.21a2.743 2.743 0 01-2.013-.836c-.55-.558-.825-1.24-.825-2.046 0-.807.275-1.49.825-2.046a2.743 2.743 0 012.013-.836c.975 0 1.716.403 2.222 1.21zm-3.707 3.223c.418.418.931.627 1.54.627s1.122-.21 1.54-.627c.418-.433.627-.95.627-1.551 0-.61-.209-1.122-.627-1.54a2.074 2.074 0 00-1.54-.638c-.609 0-1.122.212-1.54.638a2.093 2.093 0 00-.627 1.54c0 .6.209 1.118.627 1.55z" fill="#818181"/><defs><clipPath id="clip0"><path fill="#fff" transform="translate(.47 .969)" d="M0 0h66.45v38.3H0z"/></clipPath></defs></symbol><symbol fill="none" xmlns="http://www.w3.org/2000/svg" viewBox="0 0 6 7" id="next"><path d="M0 0v7l5.5-3.5L0 0z" fill="#949494"/></symbol><symbol fill="none" xmlns="http://www.w3.org/2000/svg" viewBox="0 0 17 18" id="Search"><path fill-rule="evenodd" clip-rule="evenodd" d="M12.075 7.058c0 2.799-2.261 5.058-5.038 5.058C4.261 12.116 2 9.856 2 7.058 2 4.259 4.26 2 7.037 2s5.038 2.259 5.038 5.058zm-1.265 5.959a6.99 6.99 0 01-3.773 1.099C3.151 14.116 0 10.956 0 7.058 0 3.16 3.15 0 7.037 0s7.038 3.16 7.038 7.058a7.04 7.04 0 01-1.745 4.651l4.466 4.497-1.41 1.42-4.576-4.61z" fill="#4496F6"/></symbol><symbol fill="none" xmlns="http://www.w3.org/2000/svg" viewBox="0 0 16 16" id="star"><path d="M8 1.333l2.06 4.174 4.607.673-3.334 3.247.787 4.586L8 11.847l-4.12 2.166.787-4.586L1.333 6.18l4.607-.673L8 1.333z" fill="#FFD100" stroke="#FFD100" stroke-width="2" stroke-linecap="round" stroke-linejoin="round"/></symbol><symbol fill="none" xmlns="http://www.w3.org/2000/svg" viewBox="0 0 8 8" id="arrow"><path fill-rule="evenodd" clip-rule="evenodd" d="M4.146.646a.5.5 0 01.708 0l3 3a.5.5 0 010 .708l-3 3a.5.5 0 01-.708-.708L6.793 4 4.146 1.354a.5.5 0 010-.708z" fill="#fff"/><path fill-rule="evenodd" clip-rule="evenodd" d="M0 4a.5.5 0 01.5-.5H7a.5.5 0 110 1H.5A.5.5 0 010 4z" fill="#fff"/></symbol><symbol xmlns="http://www.w3.org/2000/svg" viewBox="0 0 12 8" id="arrow-slider"><path fill-rule="evenodd" clip-rule="evenodd" d="M8.146.646a.5.5 0 01.708 0l3 3a.5.5 0 010 .708l-3 3a.5.5 0 01-.708-.708L10.793 4 8.146 1.354a.5.5 0 010-.708z"/><path fill-rule="evenodd" clip-rule="evenodd" d="M0 4a.5.5 0 01.5-.5H11a.5.5 0 010 1H.5A.5.5 0 010 4z"/></symbol><symbol xmlns="http://www.w3.org/2000/svg" viewBox="0 0 22 22" id="star-input"><path d="M11 1l3.09 6.26L21 8.27l-5 4.87 1.18 6.88L11 16.77l-6.18 3.25L6 13.14 1 8.27l6.91-1.01L11 1z"/></symbol><symbol xmlns="http://www.w3.org/2000/svg" viewBox="0 0 512 512" id="email"><path d="M467 61H45C20.218 61 0 81.196 0 106v300c0 24.72 20.128 45 45 45h422c24.72 0 45-20.128 45-45V106c0-24.72-20.128-45-45-45zm-6.214 30L256.954 294.833 51.359 91h409.427zM30 399.788V112.069l144.479 143.24L30 399.788zM51.213 421l144.57-144.57 50.657 50.222c5.864 5.814 15.327 5.795 21.167-.046L317 277.213 460.787 421H51.213zM482 399.787L338.213 256 482 112.212v287.575z"/></symbol></svg>