<svg width="24" height="22" fill="none" xmlns="http://www.w3.org/2000/svg"><path d="M14.293 17.293L13 18.586V13a1 1 0 10-2 0v5.586l-1.293-1.293a.999.999 0 10-1.414 1.414l2.999 2.999A1.01 1.01 0 0012 22a1.01 1.01 0 00.708-.294l2.999-2.999a.999.999 0 10-1.414-1.414z" fill="#E0E0E0"/><path d="M20.943 7.224C20.486 3.784 17.336 0 13.548 0c-2.031 0-4.096.998-5.475 2.599A4.039 4.039 0 002.66 6.182C1.068 7.208 0 9.103 0 11c0 1.188.394 2.506 1.081 3.615C1.991 16.086 3.66 17 5.436 17h.746A2.971 2.971 0 019 15v-2c0-1.654 1.345-3 3-3 1.654 0 3 1.346 3 3v2c.8 0 1.554.312 2.121.879.321.321.549.705.697 1.121h1.047c2.595 0 4.836-1.932 5.102-4.399A5.42 5.42 0 0024 12c0-2.296-1.176-4.093-3.057-4.776z" fill="#E0E0E0"/></svg>