<svg width="16" height="17" fill="none" xmlns="http://www.w3.org/2000/svg"><path fill-rule="evenodd" clip-rule="evenodd" d="M8 15.5a7 7 0 100-14 7 7 0 000 14zm0 1a8 8 0 100-16 8 8 0 000 16z" fill="#CFCFCF"/><path d="M5.25 6.533h1.32c0-.781.458-1.384 1.36-1.384.685 0 1.313.343 1.313 1.168 0 .635-.374.927-.965 1.371-.673.489-1.206 1.06-1.168 1.987l.007.463h1.307v-.355c0-.718.273-.927 1.01-1.486.61-.463 1.244-.977 1.244-2.056C10.678 4.73 9.402 4 8.005 4 6.68 4 5.22 4.647 5.251 6.533zm1.562 5.516c0 .533.425.927 1.01.927.61 0 1.028-.394 1.028-.927 0-.552-.42-.94-1.029-.94-.584 0-1.009.388-1.009.94z" fill="#CFCFCF"/></svg>